<svg width="17" height="16" viewBox="0 0 17 16" fill="none" xmlns="http://www.w3.org/2000/svg">
<path d="M8.36642 4.3634C9.17005 4.3634 9.82098 3.7125 9.82098 2.90884C9.82098 2.63611 9.74462 2.37794 9.61371 2.15976L8.36642 -0.000244141L7.11914 2.15976C6.98823 2.37794 6.91187 2.63611 6.91187 2.90884C6.91187 3.7125 7.5628 4.3634 8.36642 4.3634Z" fill="#626969"/>
<path d="M12.7301 6.54513H9.09377V5.09058H7.63921V6.54513H4.00286C2.79922 6.54513 1.82104 7.52331 1.82104 8.72695V9.84694C1.82104 10.6324 2.46103 11.2724 3.24649 11.2724C3.62831 11.2724 3.98466 11.1233 4.25377 10.8542L5.81013 9.30145L7.36287 10.8505C7.90106 11.3887 8.83924 11.3887 9.3774 10.8505L10.9338 9.30145L12.4865 10.8505C12.7556 11.1196 13.112 11.2687 13.4938 11.2687C14.2792 11.2687 14.9192 10.6288 14.9192 9.8433V8.72695C14.912 7.52331 13.9338 6.54513 12.7301 6.54513Z" fill="#626969"/>
<path d="M11.7083 11.6251L10.9265 10.8433L10.1411 11.6251C9.19198 12.5742 7.5338 12.5742 6.58471 11.6251L5.80287 10.8433L5.01741 11.6251C4.54832 12.1014 3.91924 12.3632 3.24649 12.3632C2.7192 12.3632 2.2283 12.196 1.82104 11.916V15.2724C1.82104 15.6723 2.14832 15.9996 2.54831 15.9996H14.1847C14.5847 15.9996 14.9119 15.6723 14.9119 15.2724V11.916C14.5046 12.196 14.0174 12.3633 13.4865 12.3633C12.8138 12.3633 12.1847 12.1015 11.7083 11.6251Z" fill="#626969"/>
</svg>
