<svg width="32" height="33" viewBox="0 0 32 33" fill="none" xmlns="http://www.w3.org/2000/svg">
<path d="M16.646 9.29515C18.2533 9.29515 19.5552 7.99335 19.5552 6.38603C19.5552 5.84058 19.4024 5.32424 19.1406 4.88787L16.646 0.567871L14.1515 4.88787C13.8897 5.32424 13.7369 5.84058 13.7369 6.38603C13.7369 7.99335 15.0388 9.29515 16.646 9.29515Z" fill="#626969"/>
<path d="M25.3735 13.6586H18.1007V10.7495H15.1916V13.6586H7.91894C5.51164 13.6586 3.5553 15.615 3.5553 18.0223V20.2622C3.5553 21.8332 4.83528 23.1131 6.40619 23.1131C7.16982 23.1131 7.88253 22.815 8.42076 22.2767L11.5335 19.1713L14.6389 22.2695C15.7153 23.3458 17.5917 23.3458 18.668 22.2695L21.7807 19.1713L24.8862 22.2695C25.4244 22.8076 26.1371 23.1058 26.9008 23.1058C28.4717 23.1058 29.7517 21.8259 29.7517 20.255V18.0223C29.7371 15.615 27.7808 13.6586 25.3735 13.6586Z" fill="#626969"/>
<path d="M23.3299 23.8185L21.7663 22.2549L20.1954 23.8185C18.2972 25.7167 14.9808 25.7167 13.0826 23.8185L11.5189 22.2549L9.94803 23.8185C9.00985 24.7712 7.75169 25.2948 6.40619 25.2948C5.35162 25.2948 4.3698 24.9603 3.5553 24.4003V31.1131C3.5553 31.913 4.20984 32.5676 5.00982 32.5676H28.2825C29.0825 32.5676 29.7371 31.913 29.7371 31.1131V24.4004C28.9225 24.9603 27.948 25.2949 26.8862 25.2949C25.5407 25.2949 24.2826 24.7713 23.3299 23.8185Z" fill="#626969"/>
</svg>
