<svg width="18" height="18" viewBox="0 0 18 18" fill="none" xmlns="http://www.w3.org/2000/svg">
<path d="M10.6493 9.00013L17.6583 1.99094C18.1144 1.53502 18.1144 0.797859 17.6583 0.341939C17.2024 -0.11398 16.4652 -0.11398 16.0093 0.341939L9.00008 7.35114L1.9911 0.341939C1.53496 -0.11398 0.798019 -0.11398 0.3421 0.341939C-0.114033 0.797859 -0.114033 1.53502 0.3421 1.99094L7.35108 9.00013L0.3421 16.0093C-0.114033 16.4653 -0.114033 17.2024 0.3421 17.6583C0.569312 17.8858 0.868062 18 1.1666 18C1.46513 18 1.76367 17.8858 1.9911 17.6583L9.00008 10.6491L16.0093 17.6583C16.2367 17.8858 16.5352 18 16.8338 18C17.1323 18 17.4308 17.8858 17.6583 17.6583C18.1144 17.2024 18.1144 16.4653 17.6583 16.0093L10.6493 9.00013Z" fill="#313139"/>
</svg>
