<svg width="17" height="16" viewBox="0 0 17 16" fill="none" xmlns="http://www.w3.org/2000/svg">
<path d="M12.8297 5.19914L10.0263 2.32814C9.68442 1.98636 9.20582 1.78129 8.65882 1.78129H4.62462C3.59897 1.71293 2.71008 2.60158 2.71008 3.62693V13.1969C2.71008 14.2223 3.5306 15.1109 4.62462 15.1109H11.4622C12.4879 15.1109 13.3767 14.2907 13.3767 13.1969V6.49793C13.3767 6.01943 13.1716 5.54093 12.8297 5.19914ZM5.99214 7.18152H8.04342C8.31695 7.18152 8.59042 7.38659 8.59042 7.72839C8.59042 8.07012 8.38528 8.27519 8.04342 8.27519H5.99214C5.71863 8.27519 5.44512 8.07012 5.44512 7.72839C5.44512 7.38659 5.71863 7.18152 5.99214 7.18152ZM10.0947 11.0095H5.99214C5.71863 11.0095 5.44512 10.8045 5.44512 10.4627C5.44512 10.1209 5.65026 9.91579 5.99214 9.91579H10.0947C10.3682 9.91579 10.6417 10.1209 10.6417 10.4627C10.6417 10.8045 10.3682 11.0095 10.0947 11.0095Z" fill="#626969"/>
</svg>
