<svg width="32" height="33" viewBox="0 0 32 33" fill="none" xmlns="http://www.w3.org/2000/svg">
<path d="M25.5725 10.9666L19.9657 5.22464C19.2819 4.54108 18.3247 4.13094 17.2307 4.13094H9.16226C7.11096 3.99422 5.33319 5.77151 5.33319 7.82222V26.9622C5.33319 29.0129 6.97422 30.7902 9.16226 30.7902H22.8375C24.8888 30.7902 26.6665 29.1497 26.6665 26.9622V13.5642C26.6665 12.6072 26.2563 11.6502 25.5725 10.9666ZM11.8973 14.9314H15.9999C16.5469 14.9314 17.0939 15.3415 17.0939 16.0251C17.0939 16.7086 16.6836 17.1187 15.9999 17.1187H11.8973C11.3503 17.1187 10.8033 16.7086 10.8033 16.0251C10.8033 15.3415 11.3503 14.9314 11.8973 14.9314ZM20.1024 22.5874H11.8973C11.3503 22.5874 10.8033 22.1773 10.8033 21.4937C10.8033 20.8101 11.2135 20.3999 11.8973 20.3999H20.1024C20.6495 20.3999 21.1964 20.8101 21.1964 21.4937C21.1964 22.1773 20.6495 22.5874 20.1024 22.5874Z" fill="#626969"/>
</svg>
