<svg width="17" height="17" viewBox="0 0 17 17" fill="none" xmlns="http://www.w3.org/2000/svg">
<path d="M8.4076 11.2658L12.561 7.11232C12.6571 7.01625 12.7101 6.88802 12.7101 6.75128C12.7101 6.61455 12.6571 6.48631 12.561 6.39024L12.2552 6.08437C12.0559 5.88534 11.7321 5.88534 11.5331 6.08437L8.04535 9.57213L4.55373 6.0805C4.45759 5.98444 4.32942 5.9314 4.19277 5.9314C4.05595 5.9314 3.92779 5.98444 3.83158 6.0805L3.52585 6.38637C3.42971 6.48251 3.37675 6.61068 3.37675 6.74741C3.37675 6.88415 3.42971 7.01238 3.52585 7.10845L7.68302 11.2658C7.77947 11.3621 7.90824 11.415 8.04512 11.4146C8.18254 11.415 8.31124 11.3621 8.4076 11.2658Z" fill="#313139"/>
</svg>
