<svg width="18" height="18" viewBox="0 0 18 18" fill="none" xmlns="http://www.w3.org/2000/svg">
<path fill-rule="evenodd" clip-rule="evenodd" d="M9.72973 1.21622C9.72973 1.88792 10.2742 2.43243 10.9459 2.43243H13.8475L10.0859 6.19406C9.61103 6.66902 9.61103 7.43906 10.0859 7.91406C10.5609 8.38897 11.331 8.38897 11.806 7.91406L15.5676 4.15242V7.05405C15.5676 7.72579 16.112 8.27027 16.7838 8.27027C17.4555 8.27027 18 7.72579 18 7.05405V1.21622C18 0.544515 17.4555 0 16.7838 0H10.9459C10.2742 0 9.72973 0.544515 9.72973 1.21622ZM2.43243 10.9459C2.43243 10.2742 1.88792 9.72973 1.21622 9.72973C0.544515 9.72973 0 10.2742 0 10.9459V16.7838C0 17.4555 0.544515 18 1.21622 18H7.05405C7.72579 18 8.27027 17.4555 8.27027 16.7838C8.27027 16.112 7.72579 15.5676 7.05405 15.5676H4.15242L7.91406 11.806C8.38897 11.331 8.38897 10.5609 7.91406 10.0859C7.43906 9.61103 6.66902 9.61103 6.19406 10.0859L2.43243 13.8475V10.9459Z" fill="#313139"/>
</svg>
