<svg width="41" height="41" viewBox="0 0 41 41" fill="none" xmlns="http://www.w3.org/2000/svg">
<g clip-path="url(#clip0_72_164)">
<path d="M22.5057 23.6792C21.9086 24.0772 21.2151 24.2877 20.5 24.2877C19.785 24.2877 19.0914 24.0772 18.4943 23.6792L8.6598 17.1226C8.60523 17.0862 8.55208 17.0483 8.5 17.0093V27.7529C8.5 28.9847 9.49961 29.9623 10.7094 29.9623H30.2906C31.5224 29.9623 32.5 28.9627 32.5 27.7529V17.0093C32.4478 17.0484 32.3945 17.0864 32.3398 17.1228L22.5057 23.6792Z" fill="#313139"/>
<path d="M9.43984 15.9526L19.2744 22.5091C19.6466 22.7574 20.0733 22.8814 20.5 22.8814C20.9267 22.8814 21.3534 22.7573 21.7256 22.5091L31.5602 15.9526C32.1487 15.5604 32.5 14.9042 32.5 14.1959C32.5 12.9781 31.5092 11.9873 30.2914 11.9873H10.7086C9.4908 11.9874 8.5 12.9781 8.5 14.1971C8.5 14.9042 8.85137 15.5604 9.43984 15.9526Z" fill="#313139"/>
</g>
<defs>
<clipPath id="clip0_72_164">
<rect width="24" height="24" fill="white" transform="translate(8.5 8.97461)"/>
</clipPath>
</defs>
</svg>
