<svg width="25" height="25" viewBox="0 0 25 25" fill="none" xmlns="http://www.w3.org/2000/svg">
<path d="M12.4076 15.2658L16.561 11.1123C16.6571 11.0163 16.7101 10.888 16.7101 10.7513C16.7101 10.6145 16.6571 10.4863 16.561 10.3902L16.2552 10.0844C16.0559 9.88534 15.7321 9.88534 15.5331 10.0844L12.0454 13.5721L8.55373 10.0805C8.45759 9.98444 8.32942 9.9314 8.19277 9.9314C8.05595 9.9314 7.92779 9.98444 7.83158 10.0805L7.52585 10.3864C7.42971 10.4825 7.37675 10.6107 7.37675 10.7474C7.37675 10.8841 7.42971 11.0124 7.52585 11.1084L11.683 15.2658C11.7795 15.3621 11.9082 15.415 12.0451 15.4146C12.1825 15.415 12.3112 15.3621 12.4076 15.2658Z" fill="#313139"/>
</svg>
