<svg width="36" height="37" viewBox="0 0 36 37" fill="none" xmlns="http://www.w3.org/2000/svg">
<g clip-path="url(#clip0_73_406)">
<path d="M21.0086 22.1245C20.113 22.7216 19.0726 23.0372 18 23.0372C16.9275 23.0372 15.8871 22.7216 14.9915 22.1245L0.239695 12.2896C0.157852 12.2351 0.0781172 12.1782 0 12.1197V28.2351C0 30.0828 1.49941 31.5492 3.31404 31.5492H32.6859C34.5336 31.5492 35.9999 30.0497 35.9999 28.2351V12.1196C35.9217 12.1783 35.8418 12.2353 35.7597 12.2899L21.0086 22.1245Z" fill="#313139"/>
<path d="M1.40977 10.5343L16.1615 20.3692C16.72 20.7415 17.3599 20.9276 17.9999 20.9276C18.64 20.9276 19.28 20.7414 19.8385 20.3692L34.5902 10.5343C35.473 9.94614 36 8.96176 36 7.89934C36 6.07255 34.5138 4.58643 32.6871 4.58643H3.31291C1.4862 4.5865 0 6.07262 0 7.9011C0 8.96176 0.527062 9.94614 1.40977 10.5343Z" fill="#313139"/>
</g>
<defs>
<clipPath id="clip0_73_406">
<rect width="36" height="36" fill="white" transform="translate(0 0.0678711)"/>
</clipPath>
</defs>
</svg>
