<svg width="25" height="25" viewBox="0 0 25 25" fill="none" xmlns="http://www.w3.org/2000/svg">
<rect x="0.043457" y="0.5979" width="24" height="24" rx="4" fill="#6D24E3"/>
<path d="M12.4076 9.93027L16.561 14.0837C16.6571 14.1798 16.7101 14.308 16.7101 14.4448C16.7101 14.5815 16.6571 14.7097 16.561 14.8058L16.2552 15.1117C16.0559 15.3107 15.7321 15.3107 15.5331 15.1117L12.0454 11.6239L8.55373 15.1155C8.45759 15.2116 8.32942 15.2646 8.19277 15.2646C8.05595 15.2646 7.92779 15.2116 7.83158 15.1155L7.52585 14.8097C7.42971 14.7135 7.37675 14.5854 7.37675 14.4486C7.37675 14.3119 7.42971 14.1837 7.52585 14.0876L11.683 9.93027C11.7795 9.83398 11.9082 9.78109 12.0451 9.7814C12.1825 9.78109 12.3112 9.83398 12.4076 9.93027Z" fill="white"/>
</svg>
