<svg width="17" height="16" viewBox="0 0 17 16" fill="none" xmlns="http://www.w3.org/2000/svg">
<path d="M8.47873 1.00033C7.36743 1.006 6.33426 1.04985 5.38889 1.11754C3.48265 1.25969 1.97029 2.78088 1.84005 4.68785C1.68206 6.89976 1.68206 9.12047 1.84005 11.3324C1.98216 13.2385 3.50327 14.751 5.41034 14.8812C7.62178 15.0392 9.84151 15.0392 12.0529 14.8812C13.9599 14.7399 15.4733 13.2185 15.6037 11.3109C15.7613 9.09708 15.7606 6.87423 15.6018 4.6605C15.4585 2.7566 13.9384 1.24695 12.0334 1.11754C10.7793 1.02785 9.59002 0.994855 8.47873 1.00033ZM7.23263 5.02377C7.9456 5.02377 8.42014 5.61853 8.42014 6.21322C8.42014 6.80302 7.94999 7.39877 7.23263 7.39877C6.57881 7.39877 6.04513 6.86571 6.04513 6.21322C6.04513 5.56074 6.57881 5.02377 7.23263 5.02377ZM10.2112 5.02377C10.865 5.02377 11.3987 5.56074 11.3987 6.21322C11.3987 6.86571 10.865 7.39877 10.2112 7.39877C9.55735 7.39877 9.01974 6.86571 9.01974 6.21322C9.01974 5.56074 9.55735 5.02377 10.2112 5.02377ZM10.2301 7.99252C10.8109 8.03035 11.3825 8.10141 11.9175 8.35384C12.504 8.63054 12.8883 9.25503 12.8883 9.9515C12.8881 10.5109 12.4643 10.9748 11.9508 10.9748H8.47809C7.96801 10.9748 7.55443 10.5153 7.54838 9.96114C7.49131 9.02098 8.14158 8.53475 8.33744 8.4338C8.93808 8.13805 9.58378 7.99005 10.2301 7.99252ZM7.2125 8.00424C7.25559 8.00399 7.29825 8.0051 7.34134 8.00619C7.50688 8.01073 7.6721 8.02547 7.83552 8.04916C7.23605 8.48853 6.92536 9.22775 6.9644 9.98276C6.97196 10.3371 7.09026 10.6744 7.28869 10.9476H5.49962C4.97003 10.9476 4.56576 10.4868 4.5582 9.95541C4.52002 9.34252 4.79405 8.72638 5.32776 8.45346C5.41998 8.40626 6.12997 8.01066 7.2125 8.00424Z" fill="white"/>
</svg>
