<svg width="30" height="29" viewBox="0 0 30 29" fill="none" xmlns="http://www.w3.org/2000/svg">
<g clip-path="url(#clip0_167_332)">
<path d="M17.4069 17.6435C16.6904 18.1212 15.8581 18.3737 15 18.3737C14.142 18.3737 13.3097 18.1212 12.5932 17.6435L0.791755 9.77566C0.72628 9.73201 0.662492 9.68651 0.599998 9.63971V22.532C0.599998 24.0102 1.79953 25.1833 3.25123 25.1833H26.7487C28.2268 25.1833 29.3999 23.9837 29.3999 22.532V9.63965C29.3373 9.68656 29.2734 9.73218 29.2078 9.77589L17.4069 17.6435Z" fill="#313139"/>
<path d="M1.72781 8.37158L13.5292 16.2395C13.976 16.5373 14.488 16.6862 14.9999 16.6862C15.512 16.6862 16.024 16.5373 16.4708 16.2395L28.2722 8.37158C28.9784 7.90105 29.4 7.11355 29.4 6.26361C29.4 4.80218 28.211 3.61328 26.7497 3.61328H3.25033C1.78895 3.61334 0.599998 4.80224 0.599998 6.26502C0.599998 7.11355 1.02165 7.90105 1.72781 8.37158Z" fill="#313139"/>
</g>
<defs>
<clipPath id="clip0_167_332">
<rect width="28.8" height="28.8" fill="white" transform="translate(0.599998 -0.00195312)"/>
</clipPath>
</defs>
</svg>
