<svg width="40" height="41" viewBox="0 0 40 41" fill="none" xmlns="http://www.w3.org/2000/svg">
<path d="M5.83301 11.7344H34.1663C35.5474 11.7344 36.6663 10.6154 36.6663 9.23438C36.6663 7.85335 35.5474 6.73438 34.1663 6.73438H5.83301C4.45199 6.73438 3.33301 7.85335 3.33301 9.23438C3.33301 10.6154 4.45199 11.7344 5.83301 11.7344Z" fill="#313139"/>
<path d="M34.1663 16.7344H5.83301C4.45199 16.7344 3.33301 17.8534 3.33301 19.2344C3.33301 20.6154 4.45199 21.7344 5.83301 21.7344H34.1663C35.5474 21.7344 36.6663 20.6154 36.6663 19.2344C36.6663 17.8534 35.5474 16.7344 34.1663 16.7344Z" fill="#313139"/>
<path d="M34.1663 26.7344H5.83301C4.45199 26.7344 3.33301 27.8534 3.33301 29.2344C3.33301 30.6154 4.45199 31.7344 5.83301 31.7344H34.1663C35.5474 31.7344 36.6663 30.6154 36.6663 29.2344C36.6663 27.8534 35.5474 26.7344 34.1663 26.7344Z" fill="#313139"/>
</svg>
