<svg width="25" height="25" viewBox="0 0 25 25" fill="none" xmlns="http://www.w3.org/2000/svg">
<g clip-path="url(#clip0_77_1056)">
<path d="M13.2469 14.1228C12.8887 14.3616 12.4726 14.4879 12.0435 14.4879C11.6145 14.4879 11.1983 14.3616 10.8401 14.1228L4.93938 10.1889C4.90665 10.167 4.87475 10.1443 4.84351 10.1209V16.567C4.84351 17.3061 5.44327 17.8927 6.16912 17.8927H17.9179C18.6569 17.8927 19.2435 17.2929 19.2435 16.567V10.1208C19.2122 10.1443 19.1802 10.1671 19.1474 10.189L13.2469 14.1228Z" fill="#313139"/>
<path d="M5.40741 9.48657L11.3081 13.4205C11.5315 13.5695 11.7875 13.6439 12.0435 13.6439C12.2995 13.6439 12.5555 13.5694 12.7789 13.4205L18.6796 9.48657C19.0327 9.25131 19.2435 8.85756 19.2435 8.43259C19.2435 7.70187 18.649 7.10742 17.9183 7.10742H6.16867C5.43798 7.10745 4.84351 7.7019 4.84351 8.43329C4.84351 8.85756 5.05433 9.25131 5.40741 9.48657Z" fill="#313139"/>
</g>
<defs>
<clipPath id="clip0_77_1056">
<rect width="14.4" height="14.4" fill="white" transform="translate(4.84351 5.30005)"/>
</clipPath>
</defs>
</svg>
