<svg width="28" height="29" viewBox="0 0 28 29" fill="none" xmlns="http://www.w3.org/2000/svg">
<path d="M13.5751 1.81888C11.6303 1.82881 9.82223 1.90553 8.16783 2.02399C4.83191 2.27275 2.18528 4.93483 1.95735 8.27204C1.68088 12.1429 1.68088 16.0291 1.95735 19.9C2.20605 23.2357 4.86799 25.8825 8.20537 26.1104C12.0754 26.3868 15.9599 26.3868 19.8299 26.1104C23.167 25.8631 25.8155 23.2006 26.0437 19.8624C26.3196 15.9882 26.3183 12.0982 26.0404 8.22418C25.7897 4.89235 23.1295 2.25046 19.7957 2.02399C17.6011 1.86704 15.5198 1.80929 13.5751 1.81888ZM11.3944 8.8599C12.6421 8.8599 13.4725 9.90073 13.4725 10.9414C13.4725 11.9736 12.6497 13.0161 11.3944 13.0161C10.2502 13.0161 9.31625 12.0833 9.31625 10.9414C9.31625 9.79959 10.2502 8.8599 11.3944 8.8599ZM16.6068 8.8599C17.751 8.8599 18.6849 9.79959 18.6849 10.9414C18.6849 12.0833 17.751 13.0161 16.6068 13.0161C15.4626 13.0161 14.5218 12.0833 14.5218 10.9414C14.5218 9.79959 15.4626 8.8599 16.6068 8.8599ZM16.6399 14.0552C17.6564 14.1214 18.6567 14.2458 19.593 14.6875C20.6193 15.1717 21.2917 16.2646 21.2917 17.4834C21.2915 18.4624 20.5498 19.2742 19.6511 19.2742H13.5739C12.6813 19.2742 11.9575 18.4701 11.9469 17.5003C11.8471 15.855 12.985 15.0041 13.3278 14.8274C14.3789 14.3099 15.5089 14.0509 16.6399 14.0552ZM11.3592 14.0757C11.4346 14.0753 11.5092 14.0772 11.5846 14.0791C11.8743 14.0871 12.1634 14.1129 12.4494 14.1543C11.4004 14.9232 10.8567 16.2169 10.925 17.5381C10.9382 18.1582 11.1452 18.7485 11.4925 19.2266H8.36161C7.43483 19.2266 6.72735 18.4203 6.71412 17.4903C6.64731 16.4177 7.12686 15.3395 8.06085 14.8619C8.22224 14.7793 9.46473 14.087 11.3592 14.0757Z" fill="#626969"/>
</svg>
