<svg width="25" height="25" viewBox="0 0 25 25" fill="none" xmlns="http://www.w3.org/2000/svg">
<g clip-path="url(#clip0_77_1579)">
<path d="M13.8922 14.1228C13.534 14.3616 13.1178 14.4879 12.6888 14.4879C12.2598 14.4879 11.8436 14.3616 11.4854 14.1228L5.58465 10.1889C5.55191 10.167 5.52002 10.1443 5.48877 10.1209V16.567C5.48877 17.3061 6.08854 17.8927 6.81439 17.8927H18.5631C19.3022 17.8927 19.8887 17.2929 19.8887 16.567V10.1208C19.8574 10.1443 19.8255 10.1671 19.7927 10.189L13.8922 14.1228Z" fill="white"/>
<path d="M6.05268 9.48657L11.9534 13.4205C12.1768 13.5695 12.4327 13.6439 12.6887 13.6439C12.9448 13.6439 13.2008 13.5694 13.4242 13.4205L19.3249 9.48657C19.678 9.25131 19.8888 8.85756 19.8888 8.43259C19.8888 7.70187 19.2943 7.10742 18.5636 7.10742H6.81394C6.08325 7.10745 5.48877 7.7019 5.48877 8.43329C5.48877 8.85756 5.69959 9.25131 6.05268 9.48657Z" fill="white"/>
</g>
<defs>
<clipPath id="clip0_77_1579">
<rect width="14.4" height="14.4" fill="white" transform="translate(5.48877 5.30005)"/>
</clipPath>
</defs>
</svg>
