<svg width="17" height="16" viewBox="0 0 17 16" fill="none" xmlns="http://www.w3.org/2000/svg">
<path d="M0.319336 8.82739H1.75378C2.13074 11.6732 4.37 13.9125 7.21582 14.2894V15.7239C7.21631 15.8761 7.3396 15.9993 7.4917 15.9998H8.59521C8.74731 15.9993 8.87061 15.8761 8.87109 15.7239V14.2894C11.7169 13.9125 13.9562 11.6732 14.3331 8.82739H15.7676C15.9198 8.8269 16.043 8.70361 16.0435 8.55151V7.448C16.043 7.2959 15.9198 7.17261 15.7676 7.17212H14.3331C13.9562 4.32629 11.7169 2.08704 8.87109 1.71008V0.275635C8.87061 0.123413 8.74731 0.000244141 8.59521 -0.000244141H7.4917C7.3396 0.000244141 7.21631 0.123413 7.21582 0.275635V1.71008C4.37 2.08704 2.13074 4.32629 1.75378 7.17212H0.319336C0.167114 7.17261 0.0439453 7.2959 0.043457 7.448V8.55151C0.0439453 8.70361 0.167114 8.8269 0.319336 8.82739ZM8.04346 3.31006C10.6334 3.31006 12.7332 5.40979 12.7332 7.99976C12.7332 10.5897 10.6334 12.6895 8.04346 12.6895C5.45349 12.6895 3.35376 10.5897 3.35376 7.99976C3.35742 5.41125 5.45496 3.31372 8.04346 3.31006Z" fill="#626969"/>
<path d="M10.2502 7.99988C10.2502 9.21875 9.26221 10.2068 8.04333 10.2068C6.82446 10.2068 5.83643 9.21875 5.83643 7.99988C5.83643 6.78101 6.82446 5.79297 8.04333 5.79297C9.26221 5.79297 10.2502 6.78101 10.2502 7.99988Z" fill="#626969"/>
</svg>
