<svg width="32" height="33" viewBox="0 0 32 33" fill="none" xmlns="http://www.w3.org/2000/svg">
<path d="M0.551758 18.2231H3.42065C4.17456 23.9148 8.65308 28.3933 14.3447 29.1472V32.0161C14.3457 32.3206 14.5923 32.5669 14.8965 32.5679H17.1035C17.4077 32.5669 17.6543 32.3206 17.6553 32.0161V29.1472C23.3469 28.3933 27.8254 23.9148 28.5793 18.2231H31.4482C31.7527 18.2222 31.999 17.9756 32 17.6714V15.4644C31.999 15.1602 31.7527 14.9136 31.4482 14.9126H28.5793C27.8254 9.22095 23.3469 4.74243 17.6553 3.98853V1.11963C17.6543 0.815186 17.4077 0.568848 17.1035 0.567871H14.8965C14.5923 0.568848 14.3457 0.815186 14.3447 1.11963V3.98853C8.65308 4.74243 4.17456 9.22095 3.42065 14.9126H0.551758C0.247314 14.9136 0.000976562 15.1602 0 15.4644V17.6714C0.000976562 17.9756 0.247314 18.2222 0.551758 18.2231ZM16 7.18848C21.1799 7.18848 25.3794 11.3879 25.3794 16.5679C25.3794 21.7478 21.1799 25.9473 16 25.9473C10.8201 25.9473 6.62061 21.7478 6.62061 16.5679C6.62793 11.3909 10.823 7.1958 16 7.18848Z" fill="#626969"/>
<path d="M20.4136 16.5681C20.4136 19.0059 18.4375 20.9819 15.9998 20.9819C13.562 20.9819 11.5859 19.0059 11.5859 16.5681C11.5859 14.1304 13.562 12.1543 15.9998 12.1543C18.4375 12.1543 20.4136 14.1304 20.4136 16.5681Z" fill="#626969"/>
</svg>
