<svg width="32" height="33" viewBox="0 0 32 33" fill="none" xmlns="http://www.w3.org/2000/svg">
<path d="M24.9609 6.96787L19.7609 6.16787L17.4942 1.5012C17.2276 0.967871 16.5609 0.567871 15.8942 0.567871C15.2276 0.567871 14.6942 0.967871 14.2942 1.5012L12.0276 6.3012L6.82755 6.96787C5.36088 7.23454 4.82755 8.96787 5.89422 10.0345L9.62755 13.7679L8.69422 18.9679C8.56088 19.6345 8.82755 20.3012 9.36088 20.7012C9.89422 20.9679 10.6942 20.9679 11.2276 20.7012L15.8942 18.3012L20.5609 20.7012C21.2276 20.9679 21.8942 20.9679 22.4276 20.5679C22.9609 20.1679 23.2276 19.5012 23.0942 18.8345L22.1609 13.6345L25.8942 10.0345C26.9609 8.96787 26.4276 7.23454 24.9609 6.96787Z" fill="#626969"/>
<path d="M20.4283 26.9679C21.2283 26.9679 21.7616 26.3013 21.7616 25.6346C21.7616 24.8346 21.095 24.3013 20.4283 24.3013H11.3616C10.5616 24.3013 10.0283 24.9679 10.0283 25.6346C10.0283 26.4346 10.695 26.9679 11.3616 26.9679H20.4283Z" fill="#626969"/>
<path d="M6.02832 31.2347C6.02832 32.0347 6.69499 32.568 7.36165 32.568H24.1617C24.9617 32.568 25.495 31.9014 25.495 31.2347C25.495 30.568 24.8283 29.9014 24.1617 29.9014H7.49499C6.69499 29.768 6.02832 30.4347 6.02832 31.2347Z" fill="#626969"/>
</svg>
