<svg width="17" height="16" viewBox="0 0 17 16" fill="none" xmlns="http://www.w3.org/2000/svg">
<path d="M12.5239 3.19976L9.92393 2.79976L8.7906 0.466423C8.65726 0.199756 8.32393 -0.000244141 7.9906 -0.000244141C7.65726 -0.000244141 7.3906 0.199756 7.1906 0.466423L6.05726 2.86642L3.45726 3.19976C2.72393 3.33309 2.45726 4.19976 2.9906 4.73309L4.85726 6.59976L4.3906 9.19976C4.32393 9.53309 4.45726 9.86642 4.72393 10.0664C4.9906 10.1998 5.3906 10.1998 5.65726 10.0664L7.9906 8.86642L10.3239 10.0664C10.6573 10.1998 10.9906 10.1998 11.2573 9.99976C11.5239 9.79976 11.6573 9.46642 11.5906 9.13309L11.1239 6.53309L12.9906 4.73309C13.5239 4.19976 13.2573 3.33309 12.5239 3.19976Z" fill="#626969"/>
<path d="M10.2576 13.1998C10.6576 13.1998 10.9243 12.8665 10.9243 12.5331C10.9243 12.1331 10.591 11.8665 10.2576 11.8665H5.72428C5.32428 11.8665 5.05762 12.1998 5.05762 12.5331C5.05762 12.9331 5.39095 13.1998 5.72428 13.1998H10.2576Z" fill="#626969"/>
<path d="M3.05762 15.3332C3.05762 15.7332 3.39095 15.9998 3.72428 15.9998H12.1243C12.5243 15.9998 12.791 15.6665 12.791 15.3332C12.791 14.9998 12.4576 14.6665 12.1243 14.6665H3.79095C3.39095 14.5998 3.05762 14.9332 3.05762 15.3332Z" fill="#626969"/>
</svg>
