<svg width="19" height="18" viewBox="0 0 19 18" fill="none" xmlns="http://www.w3.org/2000/svg">
<path fill-rule="evenodd" clip-rule="evenodd" d="M13.15 1.15385C13.15 0.516591 12.6335 0 11.9962 0C11.3589 0 10.8423 0.516591 10.8423 1.15385V6.69231C10.8423 7.3296 11.3589 7.84615 11.9962 7.84615H17.5346C18.1719 7.84615 18.6885 7.3296 18.6885 6.69231C18.6885 6.05505 18.1719 5.53846 17.5346 5.53846H14.7818L18.3505 1.96974C18.8011 1.51914 18.8011 0.788557 18.3505 0.337957C17.8999 -0.112652 17.1694 -0.112652 16.7187 0.337957L13.15 3.90667V1.15385ZM0.688477 11.3077C0.688477 11.945 1.20507 12.4615 1.84232 12.4615H4.59515L1.02643 16.0302C0.575824 16.4809 0.575824 17.2114 1.02643 17.6621C1.47703 18.1126 2.20761 18.1126 2.65821 17.6621L6.22694 14.0934V16.8462C6.22694 17.4834 6.74353 18 7.38078 18C8.01808 18 8.53463 17.4834 8.53463 16.8462V11.3077C8.53463 10.6704 8.01808 10.1538 7.38078 10.1538H1.84232C1.20507 10.1538 0.688477 10.6704 0.688477 11.3077Z" fill="#313139"/>
</svg>
