<svg width="24" height="24" viewBox="0 0 24 24" fill="none" xmlns="http://www.w3.org/2000/svg">
<path d="M20.578 19.1675L17.3349 15.9244C18.3178 14.6377 18.8568 13.077 18.8571 11.4302C18.8571 9.44556 18.0841 7.57959 16.6805 6.17627C15.2772 4.77295 13.4115 4 11.4266 4C9.44202 4 7.57605 4.77295 6.17273 6.17627C3.27576 9.07349 3.27576 13.7874 6.17273 16.6841C7.57605 18.0876 9.44202 18.8606 11.4266 18.8606C13.0735 18.8604 14.6342 18.3213 15.9208 17.3384L19.1639 20.5815C19.359 20.7769 19.6151 20.8745 19.871 20.8745C20.1268 20.8745 20.3829 20.7769 20.578 20.5815C20.9686 20.1912 20.9686 19.5579 20.578 19.1675ZM7.58679 15.27C5.4696 13.1528 5.46985 9.70776 7.58679 7.59033C8.61243 6.56494 9.9762 6 11.4266 6C12.8773 6 14.2408 6.56494 15.2665 7.59033C16.2921 8.61597 16.8571 9.97974 16.8571 11.4302C16.8571 12.8809 16.2921 14.2444 15.2665 15.27C14.2408 16.2957 12.8773 16.8606 11.4266 16.8606C9.9762 16.8606 8.61243 16.2957 7.58679 15.27Z" fill="#313139"/>
</svg>
