<svg width="43" height="44" viewBox="0 0 43 44" fill="none" xmlns="http://www.w3.org/2000/svg">
<path d="M26.7212 34.5119C26.4862 34.5133 26.2533 34.4682 26.0358 34.3794C25.8182 34.2905 25.6204 34.1596 25.4536 33.9941L14.7413 23.2819C14.4088 22.9474 14.2222 22.4949 14.2222 22.0233C14.2222 21.5516 14.4088 21.0991 14.7413 20.7646L25.4536 10.0524C25.7951 9.75986 26.2344 9.60702 26.6838 9.62438C27.1331 9.64173 27.5593 9.82801 27.8773 10.146C28.1953 10.4639 28.3815 10.8902 28.3989 11.3395C28.4163 11.7888 28.2634 12.2282 27.9709 12.5697L18.5263 22.0143L27.9709 31.4589C28.2216 31.7076 28.393 32.025 28.4633 32.371C28.5336 32.717 28.4997 33.0762 28.366 33.4029C28.2322 33.7297 28.0045 34.0095 27.7118 34.2069C27.419 34.4043 27.0743 34.5104 26.7212 34.5119Z" fill="#313139"/>
</svg>
