<svg width="17" height="16" viewBox="0 0 17 16" fill="none" xmlns="http://www.w3.org/2000/svg">
<path fill-rule="evenodd" clip-rule="evenodd" d="M13.7887 4.09746C13.3112 3.4404 12.475 2.84735 11.4341 2.42759C10.3988 2.01012 9.19677 1.77924 8.04933 1.77761C6.9018 1.77475 5.69826 2.00324 4.66148 2.41746C3.61878 2.83408 2.78058 3.42456 2.30132 4.08005C1.84102 4.70961 1.70836 5.3882 1.91766 6.04246C2.05345 6.46686 2.44951 6.75245 2.90344 6.7531L4.4578 6.75456H4.45936C4.7693 6.75454 5.06051 6.61886 5.2584 6.38215C5.45421 6.14797 5.53529 5.84191 5.48094 5.54242C5.47934 5.53362 5.47742 5.52489 5.47521 5.51622L5.39342 5.19825C5.84633 4.98215 6.87251 4.56463 8.04454 4.57127C9.21573 4.57727 10.2412 4.99455 10.6946 5.21075L10.6115 5.52691C10.6092 5.53588 10.6072 5.54487 10.6055 5.55394C10.5503 5.85326 10.6306 6.15954 10.8257 6.39428C11.0232 6.63199 11.3146 6.76854 11.6254 6.769L13.1797 6.77046H13.1813C13.6344 6.77043 14.0306 6.48618 14.1673 6.06265C14.3786 5.40857 14.2477 4.72903 13.7887 4.09746ZM11.5579 8.35725L10.3987 7.14015C10.3286 7.06655 10.2315 7.02491 10.1299 7.02491H9.38076V6.5188C9.38076 6.31374 9.21451 6.14746 9.00942 6.14746C8.80433 6.14746 8.63808 6.31371 8.63808 6.5188V7.02491H7.449V6.5188C7.449 6.31374 7.28275 6.14746 7.07766 6.14746C6.87257 6.14746 6.70632 6.31371 6.70632 6.5188V7.02491H5.95725C5.85563 7.02491 5.75843 7.06657 5.68836 7.14015L4.52923 8.35725C3.6204 9.31153 3.11987 10.5628 3.11987 11.8806V13.4083C3.11987 13.6134 3.28612 13.7796 3.49121 13.7796H12.5959C12.801 13.7796 12.9672 13.6134 12.9672 13.4083V11.8806C12.9672 10.5628 12.4667 9.31155 11.5579 8.35725ZM8.04354 12.4223C6.97191 12.4223 6.10009 11.5504 6.10009 10.4788C6.10009 9.4072 6.97193 8.53536 8.04354 8.53536C9.11515 8.53536 9.98699 9.4072 9.98699 10.4788C9.98699 11.5504 9.11515 12.4223 8.04354 12.4223ZM6.84277 10.4787C6.84277 9.81661 7.38141 9.27795 8.04354 9.27795C8.70565 9.27795 9.2443 9.81664 9.2443 10.4787C9.2443 11.1409 8.70565 11.6795 8.04354 11.6795C7.38143 11.6795 6.84277 11.1409 6.84277 10.4787Z" fill="#626969"/>
</svg>
