<svg width="32" height="33" viewBox="0 0 32 33" fill="none" xmlns="http://www.w3.org/2000/svg">
<path fill-rule="evenodd" clip-rule="evenodd" d="M27.4906 8.76327C26.5356 7.44917 24.8632 6.26306 22.7814 5.42355C20.7108 4.5886 18.3067 4.12685 16.0118 4.12359C13.7167 4.11785 11.3097 4.57484 9.23611 5.40327C7.1507 6.23652 5.4743 7.41747 4.51578 8.72846C3.59519 9.98759 3.32987 11.3448 3.74846 12.6533C4.02005 13.5021 4.81217 14.0732 5.72003 14.0746L8.82875 14.0775H8.83186C9.45175 14.0774 10.0342 13.8061 10.43 13.3327C10.8216 12.8643 10.9837 12.2522 10.875 11.6532C10.8718 11.6356 10.868 11.6181 10.8636 11.6008L10.7 10.9649C11.6058 10.5327 13.6582 9.69762 16.0022 9.71089C18.3446 9.7229 20.3956 10.5575 21.3024 10.9899L21.1362 11.6222C21.1315 11.6401 21.1275 11.6581 21.1242 11.6762C21.0138 12.2749 21.1743 12.8874 21.5645 13.3569C21.9596 13.8323 22.5424 14.1054 23.1639 14.1064L26.2726 14.1093H26.2757C27.1819 14.1092 27.9743 13.5407 28.2478 12.6937C28.6704 11.3855 28.4086 10.0264 27.4906 8.76327ZM23.0289 17.2829L20.7107 14.8487C20.5705 14.7015 20.3761 14.6182 20.1729 14.6182H18.6747V13.606C18.6747 13.1959 18.3422 12.8633 17.932 12.8633C17.5219 12.8633 17.1894 13.1958 17.1894 13.606V14.6182H14.8112V13.606C14.8112 13.1959 14.4787 12.8633 14.0685 12.8633C13.6583 12.8633 13.3258 13.1958 13.3258 13.606V14.6182H11.8277C11.6245 14.6182 11.4301 14.7015 11.2899 14.8487L8.97165 17.2829C7.15399 19.1914 6.15294 21.694 6.15294 24.3296V27.385C6.15294 27.7952 6.48544 28.1277 6.89562 28.1277H25.1049C25.5151 28.1277 25.8476 27.7952 25.8476 27.385V24.3296C25.8477 21.694 24.8466 19.1915 23.0289 17.2829ZM16.0003 25.4129C13.857 25.4129 12.1134 23.6693 12.1134 21.526C12.1134 19.3828 13.8571 17.6391 16.0003 17.6391C18.1435 17.6391 19.8872 19.3828 19.8872 21.526C19.8872 23.6693 18.1435 25.4129 16.0003 25.4129ZM13.5986 21.5258C13.5986 20.2016 14.6759 19.1242 16.0002 19.1242C17.3244 19.1242 18.4017 20.2016 18.4017 21.5258C18.4017 22.85 17.3244 23.9274 16.0002 23.9274C14.676 23.9274 13.5986 22.85 13.5986 21.5258Z" fill="#626969"/>
</svg>
