<svg width="49" height="49" viewBox="0 0 49 49" fill="none" xmlns="http://www.w3.org/2000/svg">
<circle cx="24.0435" cy="24.5" r="24" fill="#D2D3D4"/>
<path d="M24.2865 12.5C20.8579 12.5 18.0552 15.3027 18.0552 18.7313C18.0552 22.1599 20.8579 24.9626 24.2865 24.9626C27.7151 24.9626 30.5178 22.1599 30.5178 18.7313C30.5178 15.3027 27.7151 12.5 24.2865 12.5Z" fill="white"/>
<path d="M34.9804 29.9423C34.8172 29.5341 34.5995 29.1532 34.3546 28.7994C33.1029 26.949 31.171 25.7246 28.9941 25.4252C28.722 25.3981 28.4227 25.4524 28.205 25.6157C27.0621 26.4593 25.7016 26.8946 24.2866 26.8946C22.8716 26.8946 21.5111 26.4593 20.3682 25.6157C20.1505 25.4524 19.8512 25.3708 19.5791 25.4252C17.4022 25.7246 15.4431 26.949 14.2186 28.7994C13.9737 29.1532 13.756 29.5613 13.5927 29.9423C13.5111 30.1056 13.5383 30.296 13.6199 30.4593C13.8376 30.8402 14.1097 31.2212 14.3546 31.5477C14.7356 32.0648 15.1437 32.5273 15.6063 32.9627C15.9873 33.3436 16.4226 33.6974 16.8581 34.0511C19.0077 35.6566 21.5927 36.5001 24.2594 36.5001C26.9261 36.5001 29.5111 35.6565 31.6607 34.0511C32.0961 33.7246 32.5315 33.3436 32.9125 32.9627C33.3478 32.5273 33.7832 32.0647 34.1642 31.5477C34.4363 31.194 34.6812 30.8402 34.8989 30.4593C35.0349 30.296 35.062 30.1055 34.9804 29.9423Z" fill="white"/>
</svg>
