<svg width="34" height="35" viewBox="0 0 34 35" fill="none" xmlns="http://www.w3.org/2000/svg">
<path fill-rule="evenodd" clip-rule="evenodd" d="M16.6209 7.54492C12.9554 7.54492 9.98389 10.5164 9.98389 14.182C9.98389 17.8474 12.9554 20.819 16.6209 20.819C20.2864 20.819 23.258 17.8474 23.258 14.182C23.258 10.5164 20.2864 7.54492 16.6209 7.54492Z" fill="#626969"/>
<path fill-rule="evenodd" clip-rule="evenodd" d="M8.32657 0.907715C3.74466 0.907715 0.0302734 4.6221 0.0302734 9.20401V25.7966C0.0302734 30.3785 3.74466 34.0929 8.32657 34.0929H24.9192C29.501 34.0929 33.2155 30.3785 33.2155 25.7966V9.20401C33.2155 4.6221 29.501 0.907715 24.9192 0.907715H8.32657ZM3.34879 9.20401C3.34879 6.45487 5.57743 4.22623 8.32657 4.22623H24.9192C27.6684 4.22623 29.8969 6.45487 29.8969 9.20401V25.7966C29.8969 27.238 29.2842 28.5364 28.305 29.4455C26.0616 25.2982 21.673 22.4781 16.6225 22.4781C11.5722 22.4781 7.18371 25.298 4.94014 29.445C3.96127 28.536 3.34879 27.2378 3.34879 25.7966V9.20401Z" fill="#626969"/>
</svg>
